<?xml version="1.0" encoding="UTF-8"?>
<svg xmlns="http://www.w3.org/2000/svg" version="1.1" viewBox="0 0 99.5 32.5">
  <!-- Generator: Adobe Illustrator 29.4.0, SVG Export Plug-In . SVG Version: 2.1.0 Build 152)  -->
  <defs>
    <style>
      .st0 {
        fill: #f4a5ae;
        stroke: #f2919f;
        stroke-miterlimit: 10;
        stroke-width: 1.5px;
      }

      .st1 {
        fill: #fff;
      }

      .st2 {
        mix-blend-mode: soft-light;
      }

      .st3 {
        isolation: isolate;
      }
    </style>
  </defs>
  <g class="st3">
    <g id="Calque_1">
      <rect class="st0" x=".75" y=".75" width="98" height="31" rx="12" ry="12" shape-rendering="crispEdges"/>
    </g>
    <g id="Calque_3">
      <g class="st2" shape-rendering="crispEdges">
        <path class="st1" d="M3.59,13.98c-.09-4.46,2.83-8.76,7.05-10.26,2.07-.84,4.36-.69,6.54-.74,0,0,6.51-.1,6.51-.1,17.99-.07,40.83-.83,58.62-.36,4.72-.23,9.24.88,11.92,5.09,1.21,1.89,1.81,4.15,1.67,6.37,0,0-.2,0-.2,0-.23-4.34-3.29-8.14-7.19-9.32-2.02-.67-4.1-.44-6.21-.42,0,0-6.51.14-6.51.14-15.07.12-36.82-.41-52.11-.5,0,0-6.51-.1-6.51-.1-2.18,0-4.35-.25-6.34.5-4.09,1.31-7.02,5.4-7.05,9.7,0,0-.2,0-.2,0h0Z"/>
      </g>
    </g>
    <g id="Calque_2">
      <g>
        <path class="st1" d="M38.64,21.84c-.75,0-1.37-.12-1.83-.35-.47-.23-.81-.6-1.03-1.12-.14-.34-.24-.76-.31-1.24-.07-.48-.1-1.04-.1-1.68,0-.99.04-1.82.12-2.51s.19-1.27.34-1.74c.15-.47.32-.87.54-1.18.28-.43.74-.78,1.37-1.03s1.53-.39,2.69-.39c.87,0,1.56.11,2.09.32s.91.49,1.15.85c.24.35.35.75.35,1.19,0,.67-.21,1.22-.63,1.65-.42.42-.96.75-1.64,1v.06c.73.08,1.31.32,1.72.71.41.39.62.96.62,1.69,0,.55-.16,1.06-.47,1.52-.31.46-.73.86-1.25,1.19-.52.34-1.1.6-1.75.79-.65.19-1.31.28-1.99.28ZM39.51,19.38c.35,0,.66-.06.93-.17.27-.11.48-.26.63-.45.16-.19.23-.41.23-.65,0-.29-.13-.54-.39-.73s-.67-.29-1.22-.29c-.4,0-.74.1-1.01.3-.27.2-.41.51-.41.92,0,.37.1.64.31.82.21.17.52.26.93.26ZM39.53,14.95c.5,0,.92-.11,1.25-.32.33-.22.49-.5.49-.85,0-.27-.12-.49-.36-.65-.24-.16-.59-.24-1.04-.24s-.79.09-1.06.27-.42.46-.42.83c0,.33.1.58.31.73.21.16.49.23.84.23Z"/>
        <path class="st1" d="M49.22,21.88c-1.48,0-2.55-.36-3.21-1.07-.66-.71-.99-1.89-.99-3.52,0-.53.02-1.08.05-1.64.04-.56.09-1.1.15-1.62.07-.52.14-.97.22-1.37.12-.52.33-.94.62-1.25s.7-.46,1.24-.46c.48,0,.86.12,1.12.36.26.24.39.6.39,1.07,0,.21-.04.5-.11.87-.07.37-.15.77-.23,1.2-.09.43-.16.86-.23,1.27-.07.41-.11.77-.11,1.07,0,.55.12.94.35,1.17.24.23.56.34.97.34s.74-.12.94-.36c.21-.24.31-.62.31-1.15,0-.26-.02-.6-.06-1.02-.04-.42-.09-.85-.14-1.31-.05-.45-.1-.87-.14-1.25s-.06-.67-.06-.87c0-1.1.49-1.65,1.46-1.65.5,0,.89.14,1.16.41s.45.68.55,1.22c.07.36.13.8.18,1.31.05.51.09,1.04.11,1.59.02.55.04,1.07.04,1.56,0,1.2-.16,2.17-.48,2.91-.32.74-.82,1.28-1.49,1.63-.67.35-1.55.52-2.64.52Z"/>
        <path class="st1" d="M58.74,21.9c-.52,0-.95-.15-1.28-.44-.33-.29-.49-.82-.49-1.57,0-.5.06-1.01.17-1.52s.25-.99.43-1.43c.18-.45.36-.81.55-1.09l.09.42c-.88-.31-1.59-.64-2.13-.99-.54-.35-.94-.71-1.2-1.09-.26-.38-.39-.77-.39-1.17,0-.46.1-.86.29-1.19.19-.33.44-.59.75-.77.31-.18.64-.27,1-.27.62,0,1.15.34,1.58,1.03s.75,1.62.96,2.81h.06c.26-.95.57-1.71.94-2.3.36-.58.75-1.01,1.16-1.29s.8-.42,1.17-.42c.55,0,.98.2,1.29.59.31.39.46.89.46,1.48,0,.54-.18,1.05-.54,1.52-.36.47-.87.88-1.54,1.24-.67.36-1.47.64-2.41.84l.14-.29c.2.36.39.76.56,1.2.17.44.3.88.4,1.32s.14.86.14,1.24c0,.69-.2,1.23-.6,1.59-.4.37-.92.55-1.56.55Z"/>
      </g>
    </g>
  </g>
</svg>