<?xml version="1.0" encoding="UTF-8"?>
<svg xmlns="http://www.w3.org/2000/svg" version="1.1" viewBox="0 0 99.5 32.5">
  <!-- Generator: Adobe Illustrator 29.4.0, SVG Export Plug-In . SVG Version: 2.1.0 Build 152)  -->
  <defs>
    <style>
      .st0 {
        fill: #f4a5ae;
        stroke: #f2919f;
        stroke-miterlimit: 10;
        stroke-width: 1.5px;
      }

      .st1 {
        fill: #fff;
      }

      .st2 {
        mix-blend-mode: soft-light;
      }

      .st3 {
        isolation: isolate;
      }
    </style>
  </defs>
  <g class="st3">
    <g id="Calque_1">
      <rect class="st0" x=".75" y=".75" width="98" height="31" rx="12" ry="12" shape-rendering="crispEdges"/>
    </g>
    <g id="Calque_3">
      <g class="st2" shape-rendering="crispEdges">
        <path class="st1" d="M3.59,13.98c-.09-4.46,2.83-8.76,7.05-10.26,2.07-.84,4.36-.69,6.54-.74,0,0,6.51-.1,6.51-.1,17.99-.07,40.83-.83,58.62-.36,4.72-.23,9.24.88,11.92,5.09,1.21,1.89,1.81,4.15,1.67,6.37,0,0-.2,0-.2,0-.23-4.34-3.29-8.14-7.19-9.32-2.02-.67-4.1-.44-6.21-.42,0,0-6.51.14-6.51.14-15.07.12-36.82-.41-52.11-.5,0,0-6.51-.1-6.51-.1-2.18,0-4.35-.25-6.34.5-4.09,1.31-7.02,5.4-7.05,9.7,0,0-.2,0-.2,0h0Z"/>
      </g>
    </g>
    <g id="Calque_2">
      <g>
        <path class="st1" d="M16.88,21.87c-.69,0-1.24-.09-1.64-.27-.4-.18-.71-.47-.93-.86-.19-.35-.33-.84-.43-1.46-.1-.62-.14-1.46-.14-2.52,0-.83.03-1.62.09-2.38s.13-1.35.21-1.77c.12-.63.32-1.09.6-1.36.28-.27.63-.41,1.05-.41s.79.14,1.03.41c.25.27.42.64.53,1.1.11.46.16.97.16,1.53,0,.87-.08,1.75-.23,2.64-.15.9-.35,1.72-.6,2.48l-.3-.02c.32-.33.69-.61,1.09-.83s.83-.39,1.26-.51c.43-.12.85-.17,1.25-.17.54,0,.96.13,1.25.4.29.27.43.64.43,1.12,0,.45-.14.88-.43,1.27-.29.39-.67.71-1.14.95-.26.14-.57.26-.91.35s-.71.17-1.09.23c-.38.06-.75.08-1.11.08Z"/>
        <path class="st1" d="M27.69,10.66c.93,0,1.57.14,1.94.41.37.27.55.66.55,1.18s-.22.93-.65,1.19c-.43.26-1.1.39-2.01.39-.34,0-.73,0-1.15-.02s-.87-.04-1.33-.08l.12-.14c.1.28.15.58.14.91,0,.32-.07.63-.18.94l-.2-.11c.23-.06.52-.11.85-.16.34-.05.68-.08,1.04-.11s.69-.05.99-.05c.73,0,1.25.11,1.55.32.3.22.45.48.45.79,0,.34-.17.63-.51.88s-.92.36-1.74.36c-.42,0-.86-.02-1.32-.06s-.92-.1-1.38-.17l.23-.18c.1.19.17.42.2.69.03.27.03.53,0,.79-.03.26-.1.49-.2.69l-.04-.14c.28-.09.6-.17.96-.23.36-.06.72-.11,1.1-.14s.73-.05,1.05-.05c.67,0,1.18.11,1.51.32.33.21.5.55.5,1.03,0,.32-.07.59-.21.81-.14.22-.38.41-.73.57-.25.12-.57.22-.95.31-.38.09-.79.15-1.22.2-.43.05-.86.07-1.27.07-.75,0-1.38-.1-1.88-.29-.5-.19-.86-.47-1.08-.83-.2-.36-.35-.84-.45-1.43-.1-.59-.14-1.4-.14-2.42,0-.97.04-1.76.11-2.39.07-.63.17-1.14.3-1.53s.28-.7.45-.94c.26-.35.63-.63,1.09-.83.47-.2,1.01-.34,1.62-.42.61-.08,1.24-.12,1.9-.12Z"/>
        <path class="st1" d="M38.29,10.62c.53,0,.92.21,1.16.63.24.42.35,1.06.35,1.92,0,.41-.05.91-.16,1.5-.11.58-.26,1.2-.46,1.86-.2.65-.45,1.3-.74,1.93-.29.63-.62,1.2-1,1.72-.37.52-.78.93-1.22,1.25s-.9.47-1.4.47-.95-.15-1.35-.44c-.4-.29-.75-.68-1.06-1.17s-.58-1.03-.79-1.64c-.22-.6-.4-1.22-.54-1.86-.14-.63-.24-1.24-.31-1.83-.07-.58-.1-1.09-.1-1.52,0-.88.17-1.51.5-1.91.33-.4.81-.6,1.43-.6.5,0,.87.17,1.1.52.23.35.4.93.5,1.74.06.48.14,1.03.23,1.65.1.62.2,1.27.32,1.96s.23,1.39.35,2.11h.06c.13-.53.26-1.07.4-1.62.14-.55.27-1.09.4-1.62.13-.53.25-1.04.36-1.53.11-.49.21-.95.29-1.36.16-.75.36-1.29.59-1.64.23-.35.59-.52,1.07-.52Z"/>
        <path class="st1" d="M46.08,10.66c.93,0,1.57.14,1.94.41.37.27.55.66.55,1.18s-.22.93-.65,1.19c-.43.26-1.1.39-2.01.39-.34,0-.73,0-1.15-.02s-.87-.04-1.33-.08l.12-.14c.1.28.15.58.14.91,0,.32-.07.63-.18.94l-.2-.11c.23-.06.52-.11.85-.16.34-.05.68-.08,1.04-.11s.69-.05.99-.05c.73,0,1.25.11,1.55.32.3.22.45.48.45.79,0,.34-.17.63-.51.88s-.92.36-1.74.36c-.42,0-.86-.02-1.32-.06s-.92-.1-1.38-.17l.23-.18c.1.19.17.42.2.69.03.27.03.53,0,.79-.03.26-.1.49-.2.69l-.04-.14c.28-.09.6-.17.96-.23.36-.06.72-.11,1.1-.14s.73-.05,1.05-.05c.67,0,1.18.11,1.51.32.33.21.5.55.5,1.03,0,.32-.07.59-.21.81-.14.22-.38.41-.73.57-.25.12-.57.22-.95.31-.38.09-.79.15-1.22.2-.43.05-.86.07-1.27.07-.75,0-1.38-.1-1.88-.29-.5-.19-.86-.47-1.08-.83-.2-.36-.35-.84-.45-1.43-.1-.59-.14-1.4-.14-2.42,0-.97.04-1.76.11-2.39.07-.63.17-1.14.3-1.53s.28-.7.45-.94c.26-.35.63-.63,1.09-.83.47-.2,1.01-.34,1.62-.42.61-.08,1.24-.12,1.9-.12Z"/>
        <path class="st1" d="M52.45,21.87c-.69,0-1.24-.09-1.64-.27-.4-.18-.71-.47-.93-.86-.19-.35-.33-.84-.43-1.46-.1-.62-.14-1.46-.14-2.52,0-.83.03-1.62.09-2.38s.13-1.35.21-1.77c.12-.63.32-1.09.6-1.36.28-.27.63-.41,1.05-.41s.79.14,1.03.41c.25.27.42.64.53,1.1.11.46.16.97.16,1.53,0,.87-.08,1.75-.23,2.64-.15.9-.35,1.72-.6,2.48l-.3-.02c.32-.33.69-.61,1.09-.83s.83-.39,1.26-.51c.43-.12.85-.17,1.25-.17.54,0,.96.13,1.25.4.29.27.43.64.43,1.12,0,.45-.14.88-.43,1.27-.29.39-.67.71-1.14.95-.26.14-.57.26-.91.35s-.71.17-1.09.23c-.38.06-.75.08-1.11.08Z"/>
        <path class="st1" d="M65.02,21.9c-1.48,0-2.55-.36-3.21-1.07-.66-.71-.99-1.89-.99-3.52,0-.53.02-1.08.05-1.64.04-.56.09-1.1.15-1.62.07-.52.14-.97.22-1.37.12-.52.33-.94.62-1.25s.7-.46,1.24-.46c.48,0,.86.12,1.12.36.26.24.39.6.39,1.07,0,.21-.04.5-.11.87-.07.37-.15.77-.23,1.2-.09.43-.16.86-.23,1.27-.07.41-.11.77-.11,1.07,0,.55.12.94.35,1.17.24.23.56.34.97.34s.74-.12.94-.36c.21-.24.31-.62.31-1.15,0-.26-.02-.6-.06-1.02-.04-.42-.09-.85-.14-1.31-.05-.45-.1-.87-.14-1.25s-.06-.67-.06-.87c0-1.1.49-1.65,1.46-1.65.5,0,.89.14,1.16.41s.45.68.55,1.22c.07.36.13.8.18,1.31.05.51.09,1.04.11,1.59.02.55.04,1.07.04,1.56,0,1.2-.16,2.17-.48,2.91-.32.74-.82,1.28-1.49,1.63-.67.35-1.55.52-2.64.52Z"/>
        <path class="st1" d="M75.33,10.92c1.3,0,2.25.31,2.87.92.61.61.92,1.42.92,2.42,0,.68-.16,1.28-.48,1.78-.32.5-.75.89-1.29,1.17s-1.16.42-1.84.42c-.26,0-.54-.02-.83-.08s-.59-.14-.91-.27l.12-.36c.08.23.15.52.2.85.06.34.1.68.14,1.04.04.36.05.69.05.99,0,.67-.15,1.19-.45,1.55s-.75.54-1.36.54c-.46,0-.83-.12-1.09-.35s-.45-.62-.55-1.16c-.11-.54-.16-1.26-.16-2.15,0-1.32.08-2.45.23-3.38.15-.94.38-1.68.68-2.23.29-.51.75-.92,1.39-1.22.63-.3,1.42-.45,2.36-.45ZM74.94,15.56c.52,0,.96-.14,1.3-.41.34-.27.51-.65.51-1.13,0-.31-.1-.57-.3-.78-.2-.21-.53-.31-1-.31-.35,0-.66.08-.94.23-.27.15-.48.35-.63.6s-.22.52-.22.82.11.54.32.72c.21.18.53.26.95.26Z"/>
        <path class="st1" d="M82.59,20.7c0-.33.08-.6.24-.81.16-.21.37-.36.62-.46.25-.1.52-.15.8-.15.47,0,.84.12,1.09.35.26.23.38.54.38.94,0,.48-.16.83-.48,1.05-.32.22-.7.32-1.16.32-.48,0-.86-.11-1.12-.34-.26-.23-.39-.53-.39-.9ZM84.33,10.56c.52,0,.89.2,1.11.61s.32.99.32,1.74c0,.71-.04,1.41-.12,2.12-.08.71-.19,1.31-.32,1.8-.15.54-.34.94-.57,1.18-.23.24-.49.36-.79.36-.46,0-.79-.36-.97-1.07-.19-.71-.28-1.88-.28-3.49,0-.81.05-1.44.14-1.92.1-.47.26-.82.49-1.03s.56-.32.98-.32Z"/>
      </g>
    </g>
  </g>
</svg>