<?xml version="1.0" encoding="UTF-8"?>
<svg xmlns="http://www.w3.org/2000/svg" version="1.1" viewBox="0 0 121.11 39.34">
  <!-- Generator: Adobe Illustrator 29.4.0, SVG Export Plug-In . SVG Version: 2.1.0 Build 152)  -->
  <defs>
    <style>
      .st0 {
        fill: #f4a5ae;
        stroke: #f2919f;
        stroke-miterlimit: 10;
        stroke-width: 1.5px;
      }

      .st1 {
        fill: #fff;
      }

      .st2 {
        mix-blend-mode: soft-light;
      }

      .st3 {
        isolation: isolate;
      }
    </style>
  </defs>
  <g class="st3">
    <g id="Calque_1">
      <rect class="st0" x=".75" y=".75" width="119.61" height="37.84" rx="12" ry="12" shape-rendering="crispEdges"/>
    </g>
    <g id="Calque_3">
      <g class="st2" shape-rendering="crispEdges">
        <path class="st1" d="M4.24,16.9c-.1-5.43,3.47-10.66,8.61-12.46,2.53-1.01,5.3-.82,7.96-.88,0,0,7.95-.1,7.95-.1,21.95-.07,49.84-.83,71.55-.36,4.07-.1,8.48.22,11.69,3.04,3.24,2.54,5.09,6.67,4.88,10.76,0,0-.2,0-.2,0-.22-5.3-3.93-10.03-8.74-11.52-2.48-.84-5.04-.57-7.63-.55-21.63.46-49.67-.28-71.55-.36,0,0-7.95-.1-7.95-.1-2.66,0-5.31-.29-7.76.64-5.02,1.63-8.58,6.63-8.61,11.9,0,0-.2,0-.2,0h0Z"/>
      </g>
    </g>
    <g id="Calque_2">
      <g>
        <path class="st1" d="M18.29,25.52c-.34,0-.64-.07-.9-.21-.26-.14-.46-.38-.61-.73-.14-.35-.22-.83-.22-1.45s.04-1.28.11-1.98.17-1.41.28-2.14c.11-.73.22-1.43.33-2.1h-.06c-.34,1.43-.71,2.47-1.1,3.11-.39.65-.84.97-1.33.97-.31,0-.59-.11-.83-.34-.25-.23-.49-.65-.72-1.27-.23-.62-.48-1.49-.74-2.62h-.06c.06.46.13.95.2,1.47.07.52.14,1.05.2,1.58.06.53.11,1.03.15,1.5.04.47.06.89.06,1.26,0,.47-.05.9-.16,1.28-.11.38-.29.69-.54.91-.26.22-.62.34-1.09.34-.61,0-1.06-.2-1.36-.59-.3-.39-.45-1.05-.45-1.95,0-.41.01-.88.04-1.43.03-.55.06-1.12.11-1.7s.1-1.16.17-1.71.13-1.04.19-1.46c.15-.85.39-1.46.74-1.82.34-.36.78-.54,1.31-.54.36,0,.72.11,1.06.34.35.22.67.63.98,1.21.31.58.58,1.41.8,2.47h.06c.21-1.11.46-1.98.74-2.61.28-.63.58-1.07.91-1.33.33-.26.68-.38,1.04-.38.56,0,1.01.19,1.34.57.33.38.57.91.73,1.59.14.61.26,1.31.36,2.11.1.8.18,1.62.23,2.45.05.83.08,1.61.08,2.34,0,1.06-.19,1.8-.56,2.23-.37.43-.87.65-1.49.65Z"/>
        <path class="st1" d="M22.85,26.14c-.53,0-.94-.16-1.22-.49s-.42-.91-.42-1.77c0-.43.04-.9.14-1.42.09-.52.23-1.07.41-1.66.18-.58.41-1.17.67-1.78s.57-1.2.91-1.8c.39-.68.78-1.23,1.15-1.66.37-.42.76-.73,1.17-.92.41-.19.85-.29,1.34-.29.65,0,1.23.26,1.75.79.52.53.94,1.31,1.26,2.34.18.57.33,1.16.46,1.78.12.62.22,1.26.28,1.9s.1,1.27.1,1.89c0,.98-.18,1.69-.53,2.11-.35.43-.84.64-1.47.64-.54,0-.97-.16-1.29-.49-.31-.33-.51-.86-.58-1.61-.04-.39-.06-.8-.06-1.22s.02-.81.06-1.18l.83,1.44c-.3.1-.67.16-1.11.18-.44.03-.9.02-1.38-.03-.48-.05-.92-.14-1.34-.26l1.28-1.42c-.02.5-.06.99-.11,1.46-.05.47-.12.91-.19,1.3-.09.46-.21.85-.38,1.18s-.39.57-.66.73c-.28.16-.63.24-1.06.24ZM26.15,20.62c.53,0,.94-.15,1.23-.44s.43-.71.43-1.26c0-.25-.03-.48-.08-.71-.05-.23-.14-.43-.25-.62-.11-.18-.25-.32-.41-.42-.16-.1-.34-.15-.53-.15-.25,0-.47.07-.68.22s-.39.35-.54.59c-.15.25-.27.51-.35.78-.09.28-.13.53-.13.77,0,.36.11.66.34.89s.55.34.95.34Z"/>
        <path class="st1" d="M33.57,25.07c-.41,0-.72-.11-.95-.34-.23-.22-.41-.55-.55-.98-.08-.25-.14-.55-.19-.91s-.1-.77-.13-1.23c-.03-.46-.05-.94-.05-1.46,0-.91.04-1.79.11-2.64.07-.85.19-1.61.34-2.27.15-.66.37-1.13.65-1.41s.65-.42,1.11-.42c.29,0,.53.07.74.22.2.15.35.4.46.74.1.35.15.82.15,1.42,0,.37-.02.77-.06,1.2-.04.43-.09.89-.17,1.38h.06c.6-1.32,1.17-2.36,1.7-3.12s1.05-1.29,1.54-1.6c.49-.31.94-.46,1.35-.46.45,0,.79.15,1.04.46.25.3.37.68.37,1.13,0,.82-.34,1.65-1.03,2.49-.69.84-1.81,1.76-3.35,2.76l.13-.38c1.34.63,2.34,1.26,2.98,1.88.64.62.96,1.23.96,1.83,0,.46-.14.83-.41,1.11s-.66.42-1.16.42c-.47,0-.94-.12-1.4-.35-.46-.23-.93-.62-1.38-1.17s-.92-1.27-1.39-2.19h-.06c.03.27.06.54.07.81s.02.54.02.81c.01.76-.11,1.33-.37,1.7-.26.38-.63.57-1.12.57Z"/>
        <path class="st1" d="M47.43,13.61c.98,0,1.67.14,2.06.43.39.29.59.7.59,1.25s-.23.99-.69,1.26-1.17.42-2.14.42c-.35,0-.75,0-1.21-.02-.45-.02-.93-.05-1.42-.09l.13-.14c.11.3.15.62.14.96-.01.34-.08.67-.19.98l-.21-.11c.26-.06.56-.12.91-.17.35-.05.72-.09,1.1-.12.38-.03.73-.05,1.04-.05.78,0,1.33.11,1.65.34.32.23.48.51.48.86,0,.36-.18.67-.54.93-.36.26-.98.38-1.86.38-.44,0-.9-.02-1.39-.06s-.98-.1-1.47-.18l.24-.19c.11.2.18.45.21.73s.03.56,0,.84c-.03.28-.1.52-.21.74l-.05-.14c.3-.1.64-.18,1.02-.25.38-.07.77-.12,1.17-.16.4-.04.77-.06,1.11-.06.71,0,1.25.11,1.61.34.36.22.54.59.54,1.1,0,.34-.07.63-.22.86s-.41.43-.77.6c-.28.13-.62.24-1.02.33-.41.09-.83.16-1.29.21s-.9.07-1.35.07c-.8,0-1.46-.1-1.99-.3-.53-.2-.91-.5-1.14-.88-.21-.38-.37-.89-.47-1.51s-.15-1.48-.15-2.57c0-1.02.04-1.87.11-2.54.07-.67.18-1.21.32-1.62.14-.42.3-.75.48-.99.28-.37.66-.67,1.16-.88.5-.21,1.07-.36,1.71-.45.65-.09,1.31-.13,2.01-.13Z"/>
        <path class="st1" d="M55.46,25.5c-.53,0-.94-.16-1.22-.49-.28-.33-.42-.91-.42-1.77,0-.41.04-.89.14-1.46.09-.56.22-1.17.38-1.81.17-.64.36-1.28.58-1.92.22-.64.46-1.24.71-1.79.33-.71.67-1.27,1.02-1.66s.71-.66,1.09-.82c.38-.15.78-.23,1.21-.23.65,0,1.24.19,1.78.58.53.39,1,1.07,1.39,2.04.25.6.47,1.27.67,2.02.2.75.37,1.54.49,2.35.12.82.18,1.62.18,2.42,0,.86-.18,1.5-.53,1.9-.35.41-.84.61-1.47.61-.54,0-.97-.16-1.29-.49-.31-.33-.51-.86-.58-1.61-.04-.48-.06-.98-.06-1.49s.02-1,.06-1.47l.83,1.2c-.3.1-.67.16-1.11.18-.44.03-.9.02-1.38-.03-.48-.05-.92-.14-1.34-.26l1.28-1.06c.01.52-.02,1.03-.08,1.53-.06.5-.14.95-.22,1.35-.07.47-.19.86-.36,1.18-.17.32-.39.56-.67.72-.28.16-.64.24-1.06.24ZM58.84,19.5c.48,0,.85-.1,1.11-.31s.39-.49.39-.84c0-.17-.04-.37-.11-.58-.08-.22-.18-.42-.3-.61s-.28-.34-.46-.47c-.18-.13-.38-.19-.6-.19s-.42.07-.6.2c-.18.13-.33.3-.46.5-.13.2-.24.41-.31.64-.07.23-.11.45-.11.65,0,.3.13.54.38.74.26.19.61.29,1.07.29Z"/>
        <path class="st1" d="M67.51,17.02c0-1.08.16-1.85.48-2.31.32-.46.82-.7,1.49-.7.44,0,.78.11,1.02.34.24.22.41.52.5.9.1.37.14.79.14,1.25,0,.41-.01.88-.04,1.42-.03.54-.06,1.09-.1,1.66-.04.57-.08,1.1-.14,1.59h.06c.27-1.27.53-2.28.78-3.04.25-.76.51-1.3.78-1.64.27-.34.55-.5.85-.5.34,0,.65.17.91.51s.53.88.79,1.62c.26.74.54,1.71.84,2.92h.06c-.03-.52-.06-1.06-.1-1.62s-.06-1.11-.07-1.66c-.02-.55-.02-1.06-.02-1.53,0-.7.07-1.25.2-1.63.13-.38.32-.65.56-.8.24-.15.52-.22.84-.22.65,0,1.15.28,1.51.85.36.57.54,1.4.54,2.5,0,.73-.03,1.47-.09,2.22-.06.76-.14,1.49-.26,2.21-.11.71-.24,1.38-.39,1.98-.17.69-.42,1.23-.74,1.61-.32.38-.73.57-1.22.57-.3,0-.59-.1-.88-.3-.29-.2-.57-.53-.86-.98-.28-.45-.55-1.04-.81-1.78-.26-.74-.49-1.64-.7-2.7h-.06c-.22,1.06-.46,1.94-.71,2.64-.25.7-.51,1.26-.79,1.67s-.58.7-.9.88c-.32.18-.66.26-1.02.26-.51,0-.92-.18-1.22-.54-.3-.36-.53-.97-.7-1.82-.07-.38-.14-.83-.21-1.34s-.12-1.03-.17-1.58-.09-1.07-.12-1.58c-.03-.51-.05-.95-.05-1.34Z"/>
        <path class="st1" d="M82.47,14.75c.42,0,.75.12,1.01.37.26.25.44.67.56,1.28.06.4.12.92.17,1.56.05.65.07,1.33.07,2.04,0,.64-.02,1.25-.06,1.82-.04.58-.1,1.11-.18,1.62-.13.76-.33,1.29-.62,1.61-.28.31-.65.47-1.1.47-.42,0-.76-.13-1.04-.38-.28-.25-.47-.69-.58-1.3-.04-.32-.09-.75-.13-1.29-.04-.54-.06-1.12-.06-1.75,0-.87.03-1.69.1-2.44.06-.75.15-1.38.26-1.88.13-.62.32-1.06.58-1.33.26-.27.6-.4,1.02-.4Z"/>
        <path class="st1" d="M88.68,25.6c-.4,0-.81-.03-1.23-.1s-.82-.17-1.18-.32-.65-.35-.86-.62c-.22-.26-.33-.59-.33-.98,0-.47.17-.86.5-1.18.33-.31.81-.47,1.44-.47.34,0,.71.03,1.12.1s.75.1,1.04.1c.26,0,.45-.04.58-.14s.2-.22.2-.39c0-.12-.04-.23-.13-.33-.09-.1-.22-.2-.42-.3s-.46-.19-.82-.27c-.77-.2-1.39-.45-1.86-.75-.47-.3-.82-.66-1.03-1.1-.21-.43-.32-.94-.32-1.51,0-.62.11-1.16.33-1.62.22-.46.51-.85.88-1.16.37-.31.78-.56,1.22-.74.45-.19.91-.32,1.38-.4.47-.08.92-.12,1.34-.12.95,0,1.71.17,2.27.51.56.34.85.83.85,1.47,0,.5-.16.91-.47,1.22-.31.31-.81.46-1.48.46-.21,0-.46-.01-.74-.04-.28-.03-.57-.06-.85-.09-.28-.03-.53-.05-.73-.05-.31,0-.54.05-.69.14-.15.09-.22.22-.22.39,0,.1.03.19.1.29.07.1.2.19.39.3.19.1.47.22.85.34.89.28,1.58.58,2.09.91.51.33.87.71,1.08,1.14.21.43.32.93.32,1.5,0,.77-.19,1.44-.58,2.01-.39.57-.93,1.01-1.62,1.33-.69.31-1.5.47-2.42.47Z"/>
        <path class="st1" d="M96.77,13.63c.5,0,.89.14,1.15.42.27.28.4.7.4,1.26,0,.48-.07,1.02-.2,1.62-.13.6-.32,1.18-.57,1.72l-.45-.24c.7-.18,1.43-.27,2.18-.26.75.01,1.42.12,2.02.32l-.46.06c-.15-.58-.26-1.15-.33-1.73-.07-.58-.1-1.09-.1-1.54,0-.59.14-1.02.42-1.31.28-.29.69-.43,1.23-.43s.95.15,1.24.44.5.73.62,1.32c.11.49.19,1.09.26,1.81.06.71.1,1.44.1,2.16s-.02,1.46-.07,2.2c-.05.74-.13,1.43-.23,2.07-.12.68-.33,1.18-.62,1.48-.3.3-.74.46-1.33.46-.62,0-1.06-.16-1.34-.49-.27-.33-.41-.87-.41-1.62,0-.52.05-1.07.15-1.65.1-.58.25-1.14.44-1.7l.51.4c-.64.17-1.32.25-2.04.25-.72,0-1.42-.09-2.1-.25l.22-.45c.26.57.47,1.15.64,1.76.17.61.26,1.22.26,1.82,0,.68-.17,1.18-.5,1.5-.34.31-.79.47-1.35.47-.48,0-.87-.12-1.17-.36-.3-.24-.51-.67-.62-1.29-.07-.44-.14-.98-.18-1.64-.05-.66-.07-1.35-.07-2.07,0-.89.04-1.74.12-2.57.08-.83.19-1.54.33-2.15.13-.56.34-1.01.64-1.33.3-.32.71-.48,1.25-.48Z"/>
        <path class="st1" d="M108.29,24.25c0-.35.09-.64.26-.86.17-.22.39-.38.66-.49.27-.11.55-.16.85-.16.5,0,.89.12,1.16.37.27.25.41.58.41.99,0,.51-.17.88-.5,1.11-.34.23-.74.34-1.22.34-.51,0-.91-.12-1.18-.36-.28-.24-.42-.56-.42-.95ZM110.13,13.5c.55,0,.95.22,1.18.65.23.43.35,1.05.35,1.85,0,.75-.05,1.49-.14,2.24-.09.75-.21,1.39-.34,1.92-.16.58-.36.99-.59,1.25-.23.26-.52.38-.85.38-.49,0-.83-.38-1.03-1.14s-.3-1.99-.3-3.7c0-.85.05-1.53.15-2.03.1-.5.27-.86.52-1.09.25-.22.59-.34,1.04-.34Z"/>
      </g>
    </g>
  </g>
</svg>