<?xml version="1.0" encoding="UTF-8"?>
<svg id="Starshine" xmlns="http://www.w3.org/2000/svg" version="1.1" viewBox="0 0 297.5 289.2">
  <!-- Generator: Adobe Illustrator 29.0.0, SVG Export Plug-In . SVG Version: 2.1.0 Build 186)  -->
  <defs>
    <style>
      .st0 {
        fill: #976fad;
      }

      .st1 {
        fill: #fff;
      }

      .st2 {
        fill: #7a4996;
      }
    </style>
  </defs>
  <g>
    <path class="st0" d="M65.9,285.2c-2.5,0-4.6-.5-6.2-1.5-2.7-1.8-8.7-9.4-7-42.6,1-19.1,4.1-37,4.1-37.2.3-1.6-.4-3.2-1.7-4-15.5-10.2-58-43.3-50.1-61.3,6.6-15.2,57.9-34.6,77-40.8,1.2-.4,2.1-1.3,2.5-2.5C96.9,60.2,123.6,4.5,142.3,4h.2c16.7,0,44.7,48.2,58.4,78.5.5,1.2,1.6,2.1,2.9,2.3,32.1,5.8,84.8,20.6,89.4,35.3,2.1,6.9-7,19.6-25,34.9-14.9,12.6-30.8,22.7-30.9,22.8-1.5.9-2.2,2.8-1.7,4.5,9.6,34.1,19.4,91.4,5.1,100.4-1.6,1-3.8,1.5-6.6,1.5-26.9,0-86.9-43.2-87.5-43.6-.7-.5-1.5-.8-2.3-.8s-1.9.3-2.6,1c-.1.1-13,11.4-29,22.5-20.6,14.4-36.7,22-46.7,22Z"/>
    <path class="st2" d="M142.5,8c1.9,0,12.5,1.8,33.7,36.5,11.9,19.6,21,39.5,21.1,39.7,1.1,2.4,3.3,4.1,5.9,4.6.2,0,21.3,3.9,42.9,10.4,29.7,9,42,17.5,43.4,22.1,1,3.1-3,13-23.7,30.6-14.6,12.4-30.4,22.5-30.5,22.6-3,1.9-4.4,5.5-3.4,8.9,0,.2,6.3,22.7,9.8,46.4,4.8,32.2,1.4,46.8-3,49.6-.9.6-2.5.9-4.5.9-21.3,0-68.7-30.9-85.2-42.9-1.4-1-3-1.5-4.7-1.5s-3.8.7-5.3,2c-19.2,16.8-56,43.5-73,43.5s-3.1-.3-4-.9c-.3-.2-7-5-5.2-38.9,1-18.8,4.1-36.7,4.1-36.8.6-3.1-.8-6.3-3.5-8.1-.2,0-15.4-10.1-29-22.9-15.2-14.3-22.6-26.8-19.7-33.4,1-2.3,6.8-10.8,38.8-24.9,18.2-8,35.6-13.7,35.8-13.7,2.4-.8,4.2-2.6,5.1-4.9,0-.2,8.2-23,19.6-45.7,15.8-31.3,28.1-42.7,34.4-42.8h.1s0,0,0,0M142.5,0c-.1,0-.2,0-.3,0-28.4.8-61.4,93.9-61.4,93.9,0,0-70.6,22.9-79.5,43-11.1,25.2,51.6,66.3,51.6,66.3,0,0-12.7,72.5,4.6,83.9,2.3,1.5,5.1,2.2,8.4,2.2,26.4,0,78.3-45.5,78.3-45.5,0,0,61.3,44.4,89.8,44.4s6.4-.6,8.8-2.1c22.2-13.9-3.4-104.9-3.4-104.9,0,0,64.3-40.8,57.6-62.3-7-22.4-92.5-38-92.5-38C204.5,80.9,168,0,142.5,0h0Z"/>
  </g>
  <ellipse cx="104.5" cy="148.2" rx="16" ry="35"/>
  <ellipse class="st1" cx="107.1" cy="134" rx="8" ry="14.9"/>
  <ellipse cx="167.5" cy="140.2" rx="16" ry="35"/>
  <ellipse class="st1" cx="170.1" cy="126" rx="8" ry="14.9"/>
  <path d="M144.9,171.8c-.7,4.8-4.8,8.7-9.6,8.8-4.4,0-8.4-3.2-9.3-7.3,1.5,3.8,5.6,6,9.1,5.3,3.3-.6,6-3.9,5.8-7.1,0-3,4.4-2.7,4,.3h0Z"/>
</svg>