<?xml version="1.0" encoding="UTF-8"?>
<svg id="Stardust" xmlns="http://www.w3.org/2000/svg" xmlns:xlink="http://www.w3.org/1999/xlink" version="1.1" viewBox="0 0 226 261.2">
  <!-- Generator: Adobe Illustrator 29.0.0, SVG Export Plug-In . SVG Version: 2.1.0 Build 186)  -->
  <defs>
    <style>
      .st0 {
        fill: url(#Dégradé_sans_nom_26391);
      }

      .st1 {
        fill: url(#Dégradé_sans_nom_26231);
      }

      .st2 {
        fill: url(#Dégradé_sans_nom_2639);
      }

      .st3 {
        fill: url(#Dégradé_sans_nom_2623);
      }
    </style>
    <linearGradient id="Dégradé_sans_nom_2639" data-name="Dégradé sans nom 2639" x1="58.8" y1="36.8" x2="167.2" y2="224.4" gradientUnits="userSpaceOnUse">
      <stop offset="0" stop-color="#fbfbf0"/>
      <stop offset=".6" stop-color="#f5d46d"/>
      <stop offset="1" stop-color="#ec975d"/>
    </linearGradient>
    <linearGradient id="Dégradé_sans_nom_2623" data-name="Dégradé sans nom 2623" x1="56.1" y1="32" x2="169.9" y2="229.2" gradientUnits="userSpaceOnUse">
      <stop offset="0" stop-color="#ebd6ab"/>
      <stop offset=".6" stop-color="#ce8d1a"/>
      <stop offset="1" stop-color="#cb731c"/>
    </linearGradient>
    <linearGradient id="Dégradé_sans_nom_26391" data-name="Dégradé sans nom 2639" x1="80.9" y1="74.9" x2="145.1" y2="186.3" xlink:href="#Dégradé_sans_nom_2639"/>
    <linearGradient id="Dégradé_sans_nom_26231" data-name="Dégradé sans nom 2623" x1="78.6" y1="71" x2="147.4" y2="190.2" xlink:href="#Dégradé_sans_nom_2623"/>
  </defs>
  <g>
    <path class="st2" d="M206.7,114.5c-14.3-16.6-31-28.6-48.8-36.1-6.4-20.7-16.7-40.2-31-56.8l-13.8-16.1-13.8,16.1c-14.3,16.6-24.6,36.1-31,56.8-17.8,7.4-34.5,19.5-48.8,36.1l-13.8,16.1,13.8,16.1c14.3,16.6,31,28.6,48.8,36.1,6.4,20.7,16.7,40.2,31,56.8l13.8,16.1,13.8-16.1c14.3-16.6,24.6-36.1,31-56.8,17.8-7.4,34.5-19.5,48.8-36.1l13.8-16.1-13.8-16.1Z"/>
    <path class="st3" d="M113,261.2c-1.6,0-3.1-.7-4.2-1.9l-13.8-16.1c-13.9-16.2-24.4-35.1-31.3-56.3-18.3-8.1-34.6-20.4-48.5-36.5l-13.8-16.1c-1.8-2.1-1.8-5.1,0-7.2l13.8-16.1c13.9-16.2,30.2-28.5,48.5-36.5,6.9-21.2,17.4-40.1,31.3-56.3L108.8,1.9C109.9.7,111.4,0,113,0s3.1.7,4.2,1.9l13.8,16.1c13.9,16.2,24.4,35.1,31.3,56.3,18.3,8.1,34.6,20.4,48.5,36.5h0s13.8,16.1,13.8,16.1c1.8,2.1,1.8,5.1,0,7.2l-13.8,16.1c-13.9,16.2-30.2,28.5-48.5,36.5-6.9,21.2-17.4,40.1-31.3,56.3l-13.8,16.1c-1,1.2-2.6,1.9-4.2,1.9ZM12.7,130.6l10.8,12.5c13.4,15.6,29.1,27.2,46.8,34.6,1.5.6,2.7,1.9,3.1,3.5,6.4,20.7,16.5,39.2,29.9,54.8l9.7,11.3,9.7-11.3c13.5-15.7,23.5-34.1,29.9-54.8.5-1.6,1.6-2.8,3.1-3.5,17.6-7.4,33.4-19,46.8-34.6l10.8-12.5-10.8-12.5c-13.4-15.6-29.1-27.2-46.8-34.6-1.5-.6-2.7-1.9-3.1-3.5-6.4-20.7-16.5-39.2-29.9-54.8l-9.7-11.3-9.7,11.3c-13.5,15.7-23.5,34.1-29.9,54.8-.5,1.6-1.6,2.8-3.1,3.5-17.6,7.4-33.4,19-46.8,34.6l-10.8,12.5Z"/>
  </g>
  <g>
    <path class="st0" d="M168.6,121c-8.5-9.9-18.4-17-29-21.4-3.8-12.3-9.9-23.8-18.4-33.7l-8.2-9.6-8.2,9.6c-8.5,9.9-14.6,21.4-18.4,33.7-10.6,4.4-20.5,11.5-29,21.4l-8.2,9.6,8.2,9.6c8.5,9.9,18.4,17,29,21.4,3.8,12.3,9.9,23.8,18.4,33.7l8.2,9.6,8.2-9.6c8.5-9.9,14.6-21.4,18.4-33.7,10.6-4.4,20.5-11.5,29-21.4l8.2-9.6-8.2-9.6Z"/>
    <path class="st1" d="M113,209.3c-1.3,0-2.6-.6-3.4-1.6l-8.2-9.6c-8.2-9.6-14.5-20.8-18.6-33.3-10.8-4.9-20.5-12.2-28.7-21.8l-8.2-9.6c-1.4-1.7-1.4-4.2,0-5.9l8.2-9.6c8.2-9.6,17.9-16.9,28.7-21.8,4.1-12.5,10.4-23.7,18.6-33.3l8.2-9.6c.9-1,2.1-1.6,3.4-1.6s2.6.6,3.4,1.6l8.2,9.6c8.2,9.6,14.5,20.8,18.6,33.3,10.8,4.9,20.5,12.2,28.7,21.8h0l8.2,9.6c1.4,1.7,1.4,4.2,0,5.9l-8.2,9.6c-8.2,9.6-17.9,16.9-28.7,21.8-4.1,12.5-10.4,23.7-18.6,33.3l-8.2,9.6c-.9,1-2.1,1.6-3.4,1.6ZM55.2,130.6l5.7,6.6c7.8,9.1,17,15.9,27.3,20.2,1.2.5,2.2,1.5,2.6,2.8,3.7,12.1,9.6,22.9,17.5,32.1l4.8,5.6,4.8-5.6c7.9-9.2,13.8-20,17.5-32.1.4-1.3,1.3-2.3,2.6-2.8,10.3-4.3,19.5-11.1,27.3-20.2l5.7-6.6-5.7-6.6c-7.8-9.1-17-15.9-27.3-20.2-1.2-.5-2.2-1.5-2.6-2.8-3.7-12.1-9.6-22.9-17.5-32.1l-4.8-5.6-4.8,5.6c-7.9,9.2-13.8,20-17.5,32.1-.4,1.3-1.3,2.3-2.6,2.8-10.3,4.3-19.5,11.1-27.3,20.2l-5.7,6.6Z"/>
  </g>
</svg>